<svg id="Layer_1" data-name="Layer 1" xmlns="http://www.w3.org/2000/svg" xmlns:xlink="http://www.w3.org/1999/xlink" viewBox="0 0 553.7 512.61"><defs><style>.cls-1{fill:url(#linear-gradient);}.cls-2{fill:url(#linear-gradient-2);}.cls-3{fill:url(#linear-gradient-3);}.cls-4{fill:url(#linear-gradient-4);}.cls-5{fill:url(#linear-gradient-5);}.cls-6{fill:url(#linear-gradient-6);}.cls-7{fill:url(#linear-gradient-7);}.cls-8{fill:url(#linear-gradient-8);}.cls-9{fill:#fff;}.cls-10{fill:#fdfdfd;}</style><linearGradient id="linear-gradient" x1="142.56" y1="295.7" x2="633.87" y2="295.7" gradientUnits="userSpaceOnUse"><stop offset="0" stop-color="#9a692b"/><stop offset="0.25" stop-color="#eac067"/><stop offset="0.52" stop-color="#f2e282"/><stop offset="0.75" stop-color="#eac067"/><stop offset="1" stop-color="#9a692b"/></linearGradient><linearGradient id="linear-gradient-2" x1="566.42" y1="210.23" x2="683.57" y2="210.23" xlink:href="#linear-gradient"/><linearGradient id="linear-gradient-3" x1="632.89" y1="145.88" x2="646.43" y2="145.88" xlink:href="#linear-gradient"/><linearGradient id="linear-gradient-4" x1="650.13" y1="161.5" x2="675.93" y2="161.5" xlink:href="#linear-gradient"/><linearGradient id="linear-gradient-5" x1="668.71" y1="180.95" x2="696.26" y2="180.95" xlink:href="#linear-gradient"/><linearGradient id="linear-gradient-6" x1="613.89" y1="147.15" x2="620.87" y2="147.15" xlink:href="#linear-gradient"/><linearGradient id="linear-gradient-7" x1="298.38" y1="310.05" x2="431.14" y2="310.05" xlink:href="#linear-gradient"/><linearGradient id="linear-gradient-8" x1="442.61" y1="310.05" x2="557.36" y2="310.05" xlink:href="#linear-gradient"/></defs><path class="cls-1" d="M625.28,266.3c-2.91,0-7.94,4.67-11.94,8.67-1.21,1.21-1.84,3.6-2.19,5.28-12.59,62.05-20.74,107.57-23.57,117.5-2.07,7.26-5.08,8.44-8.44,10.86a27.39,27.39,0,0,1-16.1,5.12s-236.38,0-257.84.11c-14.55.07-18.7-5.25-20.55-15.1-2.27-12.14-5-27.27-9.84-51.17-6.38-31.63-15.3-77.92-28.21-137.73H565.06a1.84,1.84,0,0,0,1.85-1.84l-3.3-15.68-8.81-41.8-1.31-10.64c-.34-11.69,12.06-11.58,14.71-10.62l7.77,3.33-.2-23.14,18,18.64,33.59-33.78L592.16,54.46a23.36,23.36,0,0,0-5.27-4L553.46,39.39c-4.3,13.73-18.57,23.8-35.5,23.8s-31.13-10-35.48-23.69l-34.58,11c-1.44.5-3.56,3-4.58,4.08L408,94.31,440.86,127,459.26,110l.43,77.37.12,0-56.69-.05-.39-24.24-.11-12.53,9.17,9.71L433.56,140,412.2,117.44c-.61-.68-4.63-4.69-5.47-5.07L388.55,106c-2.51,8-9.85,16.59-19.77,16.59s-16-8.59-18.55-16.59l-20.62,7.56c-.84.28-3.9,3.33-4.49,4L303.72,140l20,19.82L334.45,150l.2,37.38-92-.08c-.33-3.1-.92-6-1.35-10.82-1.31-14.56-5.61-26.14-17.92-37-8.59-7.57-21.21-7-25.34-6.7h-44a11.51,11.51,0,1,0,0,23h48.64s11.53,1.8,13.84,13.69c1.5,7.77,2.59,15.12,3.38,20.17.29,1.91.54,3.5.76,4.64,0,.14.05.27.07.39l42.92,219,.43,2.22a39,39,0,0,0,19.76,72c.18,0,6.18,0,10.76,0-.55.5-1.09,1-1.6,1.56-5.76,6-8.32,12.69-8.83,21.18-1.32,21.8,15.25,40.9,37.08,41.27a37.83,37.83,0,0,0,28-64H477.46a37.83,37.83,0,1,0,54.6,0h15.38a10.69,10.69,0,0,0,10.65-10.64,12.7,12.7,0,0,0-12.67-12.66H285.72c-7.13.19-13.69-6.06-14.12-13.5-.46-8,6.77-15.36,14.13-15.51H518.36l45.83.59c5.64-.28,19.09-1,30.22-10.33C607,415.43,610,402,613.06,387c1-6.3,13.85-73.13,20.68-107.19C634.8,274.52,628.93,266.3,625.28,266.3Z" transform="translate(-142.56 -39.39)"/><path class="cls-2" d="M674.32,261.31a4.25,4.25,0,0,1-.46,5.94c-2,1.82-13.18,10.63-13.18,10.63-6.11,4.23-10.24-3.13-10.34-3.28l-24.17-36a1.94,1.94,0,0,0-3.17,0l-21.1,30.56a1.93,1.93,0,0,1-3.46-.62l-32-124.86a1.94,1.94,0,0,1,2.85-2.15l113.27,66.35a1.93,1.93,0,0,1-.48,3.54l-33.44,8.42a1.94,1.94,0,0,0-1.1,3l4.73,6.38,22,32.11Z" transform="translate(-142.56 -39.39)"/><path class="cls-3" d="M646.37,132.55,645.06,140l-.36,2.05-3.26,18.63a4.08,4.08,0,0,1-4.72,3.3l-.47-.08a4.08,4.08,0,0,1-3.3-4.71l3.46-19.77.31-1.77,1.16-6.62a4.09,4.09,0,0,1,4.72-3.3l.47.08A4.08,4.08,0,0,1,646.37,132.55Z" transform="translate(-142.56 -39.39)"/><path class="cls-4" d="M674.9,155l-4.81,4.9-1.31,1.35-12,12.2a3.74,3.74,0,0,1-5.25,0l-.31-.3a3.69,3.69,0,0,1-.09-5.22L663.86,155l1.14-1.15,4.25-4.34a3.73,3.73,0,0,1,5.24,0l.31.3A3.7,3.7,0,0,1,674.9,155Z" transform="translate(-142.56 -39.39)"/><path class="cls-5" d="M694.18,182.11l-5.58,1.37-1.53.37-13.91,3.41c-1.65.4-3.5-.86-4.12-2.81l-.13-.41c-.61-1.94.23-3.86,1.88-4.26l14.76-3.62,1.32-.32,5-1.21c1.64-.4,3.49.86,4.11,2.8l.13.41C696.67,179.79,695.83,181.71,694.18,182.11Z" transform="translate(-142.56 -39.39)"/><path class="cls-6" d="M620.87,152.84V153a3.31,3.31,0,0,1-.14,1,3.49,3.49,0,0,1-.4.85,4.54,4.54,0,0,1-.39.48,3.07,3.07,0,0,1-.47.41,3.65,3.65,0,0,1-.54.32,4.35,4.35,0,0,1-.61.2,3.4,3.4,0,0,1-.64.09h-.12a3.31,3.31,0,0,1-3.29-3.15v0l-.38-11.59v-.11a3.32,3.32,0,0,1,3.2-3.3h.11a3.31,3.31,0,0,1,3.29,3.15Z" transform="translate(-142.56 -39.39)"/><path class="cls-7" d="M428.88,389H298.38v-.82l98.91-148.51H345.77q-13.35,0-19.94,6.56t-9.21,22.57h-7l2.82-37.75H427v.83L329,379.59h58.3a67.49,67.49,0,0,0,15.79-1.54,19.4,19.4,0,0,0,10.06-5.85,29.84,29.84,0,0,0,6-11.79,146.07,146.07,0,0,0,3.86-19.59h8.08Z" transform="translate(-142.56 -39.39)"/><path class="cls-8" d="M483.8,356.41a74.76,74.76,0,0,0,.86,12.61,12.48,12.48,0,0,0,3.74,7.39,16.83,16.83,0,0,0,8.14,3.59,87.05,87.05,0,0,0,13.89,1.23V389H442.61v-7.79A53.64,53.64,0,0,0,453.44,380a12.78,12.78,0,0,0,6.41-3.49,13.17,13.17,0,0,0,3.07-7,72.38,72.38,0,0,0,.76-11.69V262.25a80,80,0,0,0-.67-11.59,14.79,14.79,0,0,0-2.68-7,10.18,10.18,0,0,0-5.84-3.49,63.05,63.05,0,0,0-10-1.33v-7.8H555.25l2.11,39.18h-6.7A53.68,53.68,0,0,0,547,255.79a21.54,21.54,0,0,0-7-8.92,28.32,28.32,0,0,0-11.39-4.62,93.93,93.93,0,0,0-17.24-1.33H487.06c-2.18,0-3.26,1.16-3.26,3.49v62a95.54,95.54,0,0,0,15.8-1.13,28,28,0,0,0,10.92-4,18.55,18.55,0,0,0,6.61-7.8A36.65,36.65,0,0,0,520,280.72h6.7v60.1H520a51,51,0,0,0-3.07-12.93,17.73,17.73,0,0,0-6.23-8,27.33,27.33,0,0,0-10.63-4.1,89.9,89.9,0,0,0-16.28-1.23Z" transform="translate(-142.56 -39.39)"/><path class="cls-9" d="M338.32,514.17a16.74,16.74,0,1,1-16.74-16.74A16.75,16.75,0,0,1,338.32,514.17Z" transform="translate(-142.56 -39.39)"/><path class="cls-10" d="M521.14,514.17a16.74,16.74,0,1,1-16.74-16.74A16.74,16.74,0,0,1,521.14,514.17Z" transform="translate(-142.56 -39.39)"/></svg>