<svg id="Layer_1" data-name="Layer 1" xmlns="http://www.w3.org/2000/svg" xmlns:xlink="http://www.w3.org/1999/xlink" viewBox="0 0 507.04 380.16"><defs><style>.cls-1{fill:url(#linear-gradient);}.cls-2{fill:url(#linear-gradient-2);}.cls-3{fill:url(#linear-gradient-3);}.cls-4{fill:url(#linear-gradient-4);}.cls-5{fill:url(#linear-gradient-5);}.cls-6{fill:url(#linear-gradient-6);}.cls-7{fill:url(#linear-gradient-7);}.cls-8{fill:url(#linear-gradient-8);}.cls-9{fill:url(#linear-gradient-9);}.cls-10{fill:url(#linear-gradient-10);}.cls-11{fill:url(#linear-gradient-11);}</style><linearGradient id="linear-gradient" x1="186.42" y1="269.18" x2="358.12" y2="269.18" gradientUnits="userSpaceOnUse"><stop offset="0" stop-color="#9a692b"/><stop offset="0.25" stop-color="#eac067"/><stop offset="0.52" stop-color="#f2e282"/><stop offset="0.75" stop-color="#eac067"/><stop offset="1" stop-color="#9a692b"/></linearGradient><linearGradient id="linear-gradient-2" x1="364.69" y1="269.18" x2="443.48" y2="269.18" xlink:href="#linear-gradient"/><linearGradient id="linear-gradient-3" x1="452.51" y1="270.53" x2="651.69" y2="270.53" xlink:href="#linear-gradient"/><linearGradient id="linear-gradient-4" x1="164.91" y1="449.8" x2="224.49" y2="449.8" xlink:href="#linear-gradient"/><linearGradient id="linear-gradient-5" x1="219.82" y1="449.8" x2="298.49" y2="449.8" xlink:href="#linear-gradient"/><linearGradient id="linear-gradient-6" x1="302.96" y1="449.8" x2="355.97" y2="449.8" xlink:href="#linear-gradient"/><linearGradient id="linear-gradient-7" x1="365.82" y1="449.8" x2="448.77" y2="449.8" xlink:href="#linear-gradient"/><linearGradient id="linear-gradient-8" x1="457.82" y1="449.8" x2="490.04" y2="449.8" xlink:href="#linear-gradient"/><linearGradient id="linear-gradient-9" x1="498.9" y1="449.8" x2="581.65" y2="449.8" xlink:href="#linear-gradient"/><linearGradient id="linear-gradient-10" x1="590.5" y1="450.27" x2="671.96" y2="450.27" xlink:href="#linear-gradient"/><linearGradient id="linear-gradient-11" x1="366.14" y1="128.11" x2="443.52" y2="128.11" xlink:href="#linear-gradient"/></defs><path class="cls-1" d="M355.2,373.78H186.42v-1.09L314.34,176H247.71q-17.28,0-25.78,8.7T210,214.56h-9l3.65-50H352.77v1.09L226.06,361.28h75.39a85.52,85.52,0,0,0,20.43-2,24.89,24.89,0,0,0,13-7.75q5-5.7,7.78-15.62a196.18,196.18,0,0,0,5-25.95h10.46Z" transform="translate(-164.91 -107.01)"/><path class="cls-2" d="M417,322.43a183.8,183.8,0,0,0,1,21.46q1,7.89,3.77,12.23a13.07,13.07,0,0,0,8,5.71,64.93,64.93,0,0,0,13.74,1.63v10.32H364.69V363.46a58.08,58.08,0,0,0,13.74-1.77,14.54,14.54,0,0,0,8.14-5.57c1.95-2.72,3.25-6.56,3.9-11.55a166.54,166.54,0,0,0,1-20.24V214a173.93,173.93,0,0,0-.85-18.88q-.85-7.47-3.41-11.82a13.76,13.76,0,0,0-7.42-6.12,48.08,48.08,0,0,0-12.64-2.31V164.57h73.93v10.32a38,38,0,0,0-12.52,2.18,14.27,14.27,0,0,0-7.3,6.38q-2.55,4.49-3.4,12.37a192.46,192.46,0,0,0-.86,20.1Z" transform="translate(-164.91 -107.01)"/><path class="cls-3" d="M610.34,376.5,494.82,206.41h-1v116a209.85,209.85,0,0,0,.85,21.46q.85,7.89,3.41,12.23a12,12,0,0,0,7.29,5.71,54,54,0,0,0,12.53,1.63v10.32H452.51V363.46a58.08,58.08,0,0,0,13.74-1.77,14.6,14.6,0,0,0,8.15-5.57c1.94-2.72,3.24-6.56,3.89-11.55a166.54,166.54,0,0,0,1-20.24V214a173.93,173.93,0,0,0-.85-18.88q-.86-7.47-3.41-11.82a13.78,13.78,0,0,0-7.41-6.12,48.25,48.25,0,0,0-12.65-2.31V164.57h48.15L609.37,323h1V215.92a210.94,210.94,0,0,0-.85-21.33q-.86-8-3.4-12.36a12.13,12.13,0,0,0-7.3-5.71,54.55,54.55,0,0,0-12.52-1.63V164.57h65.42v10.32A59,59,0,0,0,638,176.66a14.58,14.58,0,0,0-8.15,5.57q-2.92,4.08-3.89,11.68a165.11,165.11,0,0,0-1,20.11V376.5Z" transform="translate(-164.91 -107.01)"/><path class="cls-4" d="M186.3,471.18a31.32,31.32,0,0,0,.44,5.82,5.62,5.62,0,0,0,1.94,3.41,9.28,9.28,0,0,0,4.23,1.65,49.11,49.11,0,0,0,7.21.57v3.6H164.91v-3.6a30.1,30.1,0,0,0,5.62-.57,6.84,6.84,0,0,0,3.33-1.6,5.82,5.82,0,0,0,1.6-3.22,30.37,30.37,0,0,0,.39-5.4V427.75a33.39,33.39,0,0,0-.34-5.35,6.42,6.42,0,0,0-1.4-3.21,5.34,5.34,0,0,0-3-1.61,35.35,35.35,0,0,0-5.17-.62v-3.59H223.4l1.09,18.07H221a22.53,22.53,0,0,0-1.89-6.67,10.16,10.16,0,0,0-3.63-4.12,15.69,15.69,0,0,0-5.92-2.13,54.33,54.33,0,0,0-8.95-.61H188c-1.13,0-1.69.54-1.69,1.61v28.57a55.21,55.21,0,0,0,8.2-.52,15.63,15.63,0,0,0,5.67-1.84,8.87,8.87,0,0,0,3.43-3.6,15.12,15.12,0,0,0,1.49-5.86h3.49V464h-3.49a21.18,21.18,0,0,0-1.59-6,8.3,8.3,0,0,0-3.23-3.69,15.22,15.22,0,0,0-5.52-1.89,52.11,52.11,0,0,0-8.45-.57Z" transform="translate(-164.91 -107.01)"/><path class="cls-5" d="M269,459.83H242.39q-1.69,3.87-2.88,6.86c-.8,2-1.44,3.7-1.94,5.15a28,28,0,0,0-1,3.69,13.34,13.34,0,0,0-.3,2.47,3.78,3.78,0,0,0,1.79,3.64q1.78,1,6,1v3.6H219.82v-3.6a25.27,25.27,0,0,0,3.92-.76,9.71,9.71,0,0,0,2.89-1.32,8.57,8.57,0,0,0,2.19-2.22,22.34,22.34,0,0,0,1.84-3.36l25.86-61.6h4.27l22.58,53.36q2.28,5.31,4,8.47a20.7,20.7,0,0,0,3.28,4.78,7.31,7.31,0,0,0,3.43,2.08,17.75,17.75,0,0,0,4.43.48v3.69H266.06v-3.69q5.28,0,7.26-1a3.21,3.21,0,0,0,2-3.12,13.54,13.54,0,0,0-.1-1.75,13.07,13.07,0,0,0-.34-1.75c-.17-.63-.4-1.34-.7-2.13s-.68-1.72-1.14-2.79Zm-24.57-4.73h22.68l-11-27.92Z" transform="translate(-164.91 -107.01)"/><path class="cls-6" d="M303,464h3.68a23.07,23.07,0,0,0,2.64,7.67,20.19,20.19,0,0,0,4.87,5.77,21.61,21.61,0,0,0,6.77,3.64,26.11,26.11,0,0,0,8.3,1.28c4.91,0,8.78-1.11,11.64-3.31a10.77,10.77,0,0,0,4.27-9,11.11,11.11,0,0,0-.84-4.36,11.5,11.5,0,0,0-2.84-3.83,25.9,25.9,0,0,0-5.32-3.64,90.2,90.2,0,0,0-8.4-3.88,95,95,0,0,1-10.35-4.92,30,30,0,0,1-6.66-4.92,15.39,15.39,0,0,1-3.53-5.44,19.21,19.21,0,0,1-1-6.58,19.46,19.46,0,0,1,1.64-8,18.78,18.78,0,0,1,4.62-6.39,21,21,0,0,1,7.06-4.16,26.22,26.22,0,0,1,8.95-1.47,24.33,24.33,0,0,1,8.16,1.33,28.47,28.47,0,0,1,7.66,4.25l2.58-4.25h2.29l1.1,18.83h-3.68q-2.4-7.77-6.92-11.55a16.41,16.41,0,0,0-10.89-3.78q-6.06,0-9.64,2.83a9.28,9.28,0,0,0-3.59,7.67,10.33,10.33,0,0,0,.8,4.12,10.45,10.45,0,0,0,2.59,3.5,25.8,25.8,0,0,0,4.67,3.31,66.74,66.74,0,0,0,7.16,3.45A132.14,132.14,0,0,1,343,448a39.26,39.26,0,0,1,7.75,5.4,15.84,15.84,0,0,1,4.08,5.67,17.73,17.73,0,0,1,1.19,6.67,19.25,19.25,0,0,1-2,8.71,20.18,20.18,0,0,1-5.57,6.81,26.14,26.14,0,0,1-8.56,4.4,36.38,36.38,0,0,1-10.94,1.56,29.09,29.09,0,0,1-19.39-6.62l-2.79,4.64h-2.29Z" transform="translate(-164.91 -107.01)"/><path class="cls-7" d="M437.93,471.18a33.73,33.73,0,0,0,.4,5.82,6.33,6.33,0,0,0,1.54,3.41,6.26,6.26,0,0,0,3.28,1.65,30.1,30.1,0,0,0,5.62.57v3.6H416.54v-3.6a30.1,30.1,0,0,0,5.62-.57,6.92,6.92,0,0,0,3.34-1.6,5.88,5.88,0,0,0,1.59-3.22,30.37,30.37,0,0,0,.39-5.4V451.31H387.2v19.87a34.77,34.77,0,0,0,.4,5.82,6.48,6.48,0,0,0,1.54,3.41,6.29,6.29,0,0,0,3.29,1.65,30,30,0,0,0,5.61.57v3.6H365.82v-3.6a30.19,30.19,0,0,0,5.62-.57,6.88,6.88,0,0,0,3.33-1.6,5.75,5.75,0,0,0,1.59-3.22,29.33,29.33,0,0,0,.4-5.4V427.75a33.22,33.22,0,0,0-.35-5.35,6.33,6.33,0,0,0-1.39-3.21,5.41,5.41,0,0,0-3-1.61,35.33,35.33,0,0,0-5.18-.62v-3.59h30.24V417a26.48,26.48,0,0,0-5.12.57,5.55,5.55,0,0,0-3,1.7,6.89,6.89,0,0,0-1.39,3.41,38.37,38.37,0,0,0-.35,5.77v18.17h40.28V427.75a33.39,33.39,0,0,0-.34-5.35,6.42,6.42,0,0,0-1.4-3.21,5.34,5.34,0,0,0-3-1.61,35.35,35.35,0,0,0-5.17-.62v-3.59h30.23V417a26.58,26.58,0,0,0-5.12.57,5.52,5.52,0,0,0-3,1.7,6.8,6.8,0,0,0-1.39,3.41,37.09,37.09,0,0,0-.35,5.77Z" transform="translate(-164.91 -107.01)"/><path class="cls-8" d="M479.2,468.34a54,54,0,0,0,.4,7.48,9.18,9.18,0,0,0,1.54,4.26,5.37,5.37,0,0,0,3.28,2,30.19,30.19,0,0,0,5.62.57v3.6H457.82v-3.6a28.16,28.16,0,0,0,5.62-.61,6.17,6.17,0,0,0,3.33-1.94,8,8,0,0,0,1.59-4,48.34,48.34,0,0,0,.4-7.05V430.59a51.57,51.57,0,0,0-.35-6.58A9.33,9.33,0,0,0,467,419.9a5.55,5.55,0,0,0-3-2.13,22.8,22.8,0,0,0-5.18-.81v-3.59h30.24V417a18.17,18.17,0,0,0-5.12.76,5.66,5.66,0,0,0-3,2.22,10.08,10.08,0,0,0-1.39,4.31,57.84,57.84,0,0,0-.35,7Z" transform="translate(-164.91 -107.01)"/><path class="cls-9" d="M540.27,412.42a44.83,44.83,0,0,1,16.31,2.93,41.29,41.29,0,0,1,13.13,8,37.33,37.33,0,0,1,8.75,12,35.34,35.34,0,0,1,3.19,14.95,32.71,32.71,0,0,1-3.24,14.39,36.92,36.92,0,0,1-8.8,11.68,42,42,0,0,1-13.13,7.86,47.06,47.06,0,0,1-32.42,0,42,42,0,0,1-13.13-7.86,36.92,36.92,0,0,1-8.8-11.68,32.71,32.71,0,0,1-3.23-14.39,35.34,35.34,0,0,1,3.18-14.95,37.33,37.33,0,0,1,8.75-12,41.29,41.29,0,0,1,13.13-8A44.83,44.83,0,0,1,540.27,412.42Zm0,69.55a30.4,30.4,0,0,0,11.79-2.18,25.1,25.1,0,0,0,9-6.24,27.79,27.79,0,0,0,5.72-9.89,40.24,40.24,0,0,0,2-13,44.1,44.1,0,0,0-2-13.67,30.33,30.33,0,0,0-5.67-10.41,24.85,24.85,0,0,0-8.95-6.63,31.37,31.37,0,0,0-23.68,0,24.85,24.85,0,0,0-8.95,6.63A30.33,30.33,0,0,0,513.81,437a44.1,44.1,0,0,0-2,13.67,40.24,40.24,0,0,0,2,13,28.15,28.15,0,0,0,5.67,9.89,24.59,24.59,0,0,0,8.95,6.24A30.8,30.8,0,0,0,540.27,482Z" transform="translate(-164.91 -107.01)"/><path class="cls-10" d="M655.05,487.17l-47.24-59.23h-.4v40.4a60.89,60.89,0,0,0,.35,7.48,9.57,9.57,0,0,0,1.39,4.26,4.83,4.83,0,0,0,3,2,25.07,25.07,0,0,0,5.12.57v3.6H590.5v-3.6a28.16,28.16,0,0,0,5.62-.61,6.13,6.13,0,0,0,3.33-1.94,8,8,0,0,0,1.59-4,48.34,48.34,0,0,0,.4-7.05V430.59a51.57,51.57,0,0,0-.35-6.58,9.33,9.33,0,0,0-1.39-4.11,5.55,5.55,0,0,0-3-2.13,22.71,22.71,0,0,0-5.18-.81v-3.59h19.7l43.46,55.16h.4V431.25a63.21,63.21,0,0,0-.35-7.43,9.75,9.75,0,0,0-1.39-4.3,4.91,4.91,0,0,0-3-2,26.48,26.48,0,0,0-5.12-.57v-3.59H672V417a28,28,0,0,0-5.62.62,6,6,0,0,0-3.33,1.94,8.07,8.07,0,0,0-1.6,4.07,50.05,50.05,0,0,0-.39,7v56.58Z" transform="translate(-164.91 -107.01)"/><path class="cls-11" d="M436.77,148.37l-1.3-.73c-5.65-3.12-18.08-9.5-27.54-14-1.95-1-2.63-1.41-3.56-1.14h-.06a16.07,16.07,0,0,0-2.58,1.17c-9.4,4.5-21.75,10.84-27.44,14l-1.39.78c-4.86,2.78-9.08-2.29-5.3-5.61,3.49-3.07,15.67-15.36,34.2-33.77.31-.33.6-.6.87-.85l0,0c1.82-1.73,2.88-1.52,5.17.83,18.53,18.42,30.7,30.71,34.2,33.78C445.84,146.08,441.63,151.15,436.77,148.37Z" transform="translate(-164.91 -107.01)"/></svg>